<svg version="1.2" xmlns="http://www.w3.org/2000/svg" viewBox="0 0 336 189" width="336" height="189">
	<style>
		.s0 { fill: #ff7daf;stroke: #1e1e1e;stroke-miterlimit:10;stroke-width: 5 } 
	</style>
	<g id="MISCELLANEOUS">
		<path id="-e-" class="s0" d="m18.11 68.22l36.5 26.23-36.5 26.24c-16.27 11.69-19.98 34.35-8.29 50.61 11.69 16.27 34.35 19.98 50.61 8.29l77.48-55.68q0.16-0.12 0.31-0.24 0.38-0.28 0.76-0.57 0.37-0.29 0.73-0.59 0.3-0.24 0.59-0.49 0.45-0.38 0.88-0.77 0.17-0.16 0.34-0.32 0.55-0.51 1.07-1.04 0.04-0.04 0.09-0.09c2.59-2.65 4.71-5.63 6.35-8.82q0.04-0.09 0.08-0.17 0.32-0.64 0.62-1.29 0.11-0.23 0.21-0.47 0.22-0.49 0.42-0.99 0.15-0.38 0.3-0.76 0.13-0.36 0.26-0.72 0.18-0.52 0.35-1.03 0.08-0.24 0.15-0.48 0.19-0.63 0.36-1.26 0.04-0.15 0.08-0.3 0.18-0.71 0.34-1.43 0.02-0.1 0.04-0.21 0.16-0.75 0.28-1.5 0.02-0.11 0.04-0.23 0.11-0.73 0.2-1.47 0.02-0.17 0.04-0.34 0.07-0.68 0.12-1.35 0.02-0.28 0.03-0.56 0.03-0.56 0.05-1.13 0-0.42 0-0.84 0-0.42 0-0.84-0.02-0.56-0.05-1.12-0.01-0.28-0.03-0.56-0.05-0.68-0.12-1.35-0.02-0.17-0.04-0.34-0.09-0.74-0.2-1.48-0.02-0.11-0.04-0.23-0.12-0.75-0.28-1.5-0.02-0.1-0.04-0.21-0.16-0.71-0.34-1.42-0.04-0.15-0.08-0.3-0.17-0.63-0.36-1.26-0.07-0.24-0.15-0.48-0.17-0.52-0.35-1.03-0.13-0.36-0.26-0.72-0.15-0.38-0.3-0.76-0.2-0.5-0.42-1-0.1-0.23-0.21-0.46-0.3-0.65-0.62-1.29-0.04-0.08-0.08-0.17c-1.64-3.19-3.76-6.17-6.35-8.82q-0.05-0.05-0.09-0.09-0.52-0.53-1.07-1.04-0.17-0.16-0.34-0.32-0.43-0.39-0.88-0.77-0.29-0.25-0.59-0.5-0.36-0.29-0.73-0.58-0.38-0.29-0.76-0.57-0.15-0.12-0.31-0.24l-77.48-55.68c-16.26-11.69-38.92-7.98-50.61 8.29-11.69 16.26-7.98 38.92 8.29 50.61zm299.79 0l-36.5 26.23 36.5 26.24c16.26 11.69 19.97 34.35 8.28 50.61-11.69 16.27-34.35 19.98-50.61 8.29l-77.47-55.68q-0.16-0.12-0.32-0.24-0.38-0.28-0.76-0.57-0.37-0.29-0.73-0.59-0.3-0.24-0.59-0.49-0.44-0.38-0.88-0.77-0.17-0.16-0.34-0.32-0.54-0.51-1.07-1.04-0.04-0.04-0.09-0.09c-2.59-2.65-4.71-5.63-6.34-8.82q-0.05-0.09-0.09-0.17-0.32-0.64-0.62-1.29-0.1-0.23-0.21-0.47-0.21-0.49-0.41-0.99-0.16-0.38-0.31-0.76-0.13-0.36-0.25-0.72-0.19-0.52-0.36-1.03-0.07-0.24-0.14-0.48-0.2-0.63-0.37-1.26-0.04-0.15-0.07-0.3-0.19-0.71-0.34-1.43-0.03-0.1-0.05-0.21-0.15-0.75-0.28-1.5-0.02-0.11-0.03-0.23-0.12-0.73-0.21-1.47-0.02-0.17-0.03-0.34-0.08-0.68-0.13-1.35-0.01-0.28-0.03-0.56-0.03-0.56-0.04-1.13-0.01-0.42-0.01-0.84 0-0.42 0.01-0.84 0.01-0.56 0.04-1.12 0.02-0.28 0.03-0.56 0.05-0.68 0.13-1.35 0.01-0.17 0.03-0.34 0.09-0.74 0.21-1.48 0.01-0.11 0.03-0.23 0.13-0.75 0.28-1.5 0.02-0.1 0.05-0.21 0.15-0.71 0.34-1.42 0.03-0.15 0.07-0.3 0.17-0.63 0.37-1.26 0.07-0.24 0.14-0.48 0.17-0.52 0.36-1.03 0.12-0.36 0.25-0.72 0.15-0.38 0.31-0.76 0.2-0.5 0.41-1 0.11-0.23 0.21-0.46 0.3-0.65 0.62-1.29 0.04-0.08 0.09-0.17c1.63-3.19 3.75-6.17 6.34-8.82q0.05-0.05 0.09-0.09 0.53-0.53 1.07-1.04 0.17-0.16 0.34-0.32 0.44-0.39 0.88-0.77 0.29-0.25 0.59-0.5 0.36-0.29 0.73-0.58 0.38-0.29 0.76-0.57 0.16-0.12 0.32-0.24l77.47-55.68c16.26-11.69 38.92-7.98 50.61 8.29 11.69 16.26 7.98 38.92-8.28 50.61z"/>
	</g>
</svg>