<svg version="1.2" xmlns="http://www.w3.org/2000/svg" viewBox="0 0 243 243" width="243" height="243">
	<style>
		.s0 { fill: #ff7daf;stroke: #1e1e1e;stroke-miterlimit:10;stroke-width: 5 } 
	</style>
	<g id="MISCELLANEOUS">
		<path id="-e-" class="s0" d="m238.85 46.12l-42.28-42.27c-1.79-1.8-4.7-1.8-6.5 0l-68.47 68.47-68.48-68.47c-1.79-1.8-4.7-1.8-6.5 0l-42.27 42.27c-1.8 1.8-1.8 4.71 0 6.5l68.47 68.48-68.47 68.47c-1.8 1.8-1.8 4.71 0 6.5l42.27 42.28c1.8 1.79 4.71 1.79 6.5 0l68.48-68.48 68.47 68.48c1.8 1.79 4.71 1.79 6.5 0l42.28-42.28c1.79-1.79 1.79-4.7 0-6.5l-68.48-68.47 68.48-68.48c1.79-1.79 1.79-4.7 0-6.5z"/>
	</g>
</svg>