<svg version="1.2" xmlns="http://www.w3.org/2000/svg" viewBox="0 0 306 310" width="306" height="310">
	<style>
		.s0 { fill: #ccf6cf;stroke: #1e1e1e;stroke-linejoin: round;stroke-width: 5 } 
	</style>
	<g id="MISCELLANEOUS">
		<path id="-e-" class="s0" d="m7.05 190.12h15.7c5.59 0 10.12 4.53 10.12 10.13v56.11c0 27.97 22.68 50.64 50.65 50.64h35.36c2.24 0 4.05-1.81 4.05-4.05v-56.82c0-2.24-1.81-4.05-4.05-4.05h-25.95c-5.59 0-10.13-4.54-10.13-10.13v-153.65c0-5.59 4.54-10.12 10.13-10.12h25.95c2.24 0 4.05-1.82 4.05-4.06v-56.82c0-2.23-1.81-4.05-4.05-4.05h-35.36c-27.97 0-50.65 22.67-50.65 50.64v58.65c0 5.59-4.53 10.13-10.12 10.13h-15.7c-2.23 0-4.05 1.81-4.05 4.05v59.35c0 2.24 1.82 4.05 4.05 4.05zm291.9-69.99h-15.69c-5.6 0-10.13-4.53-10.13-10.12v-56.12c0-27.97-22.67-50.64-50.64-50.64h-35.36c-2.24 0-4.06 1.82-4.06 4.05v56.82c0 2.24 1.82 4.06 4.06 4.06h25.94c5.6 0 10.13 4.53 10.13 10.12v153.65c0 5.59-4.53 10.13-10.13 10.13h-25.94c-2.24 0-4.06 1.81-4.06 4.05v56.82c0 2.24 1.82 4.05 4.06 4.05h35.36c27.97 0 50.64-22.67 50.64-50.64v-58.64c0-5.6 4.53-10.13 10.13-10.13h15.69c2.24 0 4.05-1.82 4.05-4.05v-59.35c0-2.24-1.81-4.06-4.05-4.06z"/>
	</g>
</svg>