<svg version="1.2" xmlns="http://www.w3.org/2000/svg" viewBox="0 0 576 209" width="576" height="209">
	<style>
		.s0 { fill: #f8d8d8;stroke: #1e1e1e;stroke-miterlimit:10;stroke-width: 5 } 
	</style>
	<g id="MISCELLANEOUS">
		<path id="-e-" class="s0" d="m473.38 3.27c-38.48-0.94-72.28 19.26-90.49 49.74-1.56 2.61-5.36 2.67-6.92 0.06-17.8-29.83-50.53-49.84-87.97-49.84-37.44 0-70.17 20.01-87.96 49.84-1.56 2.61-5.36 2.55-6.92-0.06-18.22-30.48-52.02-50.68-90.5-49.74-53.42 1.3-98.86 46.96-99.61 100.04-0.79 56.72 45.26 102.96 102.18 102.96 37.44 0 70.17-20 87.97-49.84 1.54-2.58 5.33-2.58 6.88 0 17.79 29.84 50.52 49.84 87.96 49.84 37.44 0 70.17-20 87.97-49.84 1.54-2.58 5.34-2.58 6.88 0 17.79 29.84 50.53 49.84 87.96 49.84 56.92 0 102.98-46.24 102.18-102.97-0.74-53.07-46.19-98.73-99.61-100.03z"/>
	</g>
</svg>