<svg version="1.2" xmlns="http://www.w3.org/2000/svg" viewBox="0 0 102 73" width="102" height="73">
	<style>
		.s0 { fill: #34a853;stroke: #1e1e1e;stroke-miterlimit:10;stroke-width: 5 } 
	</style>
	<g id="MISCELLANEOUS">
		<g id="-e-">
			<g id="&lt;Group&gt;">
				<g id="&lt;Group&gt;">
					<g id="&lt;Group&gt;">
						<path id="&lt;Compound Path&gt;" class="s0" d="m61.11 59.57l10.07-15.77q-6.08-1.01-10.8-6.42-4.73-5.39-4.73-13.17 0-8.77 6.25-15.02 6.24-6.25 15.36-6.25 9.12 0 15.37 6.25 7.43 7.44 6.01 18.47c-0.34 2.64-1.08 5.21-2.18 7.64q-2.37 5.2-7.04 11.88l-14.22 21.54c-1.16 1.75-3.52 2.25-5.29 1.1l-7.65-4.97c-1.77-1.14-2.28-3.5-1.15-5.28z"/>
					</g>
				</g>
			</g>
			<g id="&lt;Group&gt;">
				<g id="&lt;Group&gt;">
					<g id="&lt;Group&gt;">
						<path id="&lt;Compound Path&gt;" class="s0" d="m8.3 59.57l10.07-15.77q-6.08-1.01-10.81-6.42-4.73-5.39-4.72-13.17-0.01-8.77 6.24-15.02 6.25-6.25 15.37-6.25 9.11 0 15.36 6.25 7.44 7.44 6.02 18.47c-0.34 2.64-1.08 5.21-2.18 7.64q-2.37 5.2-7.04 11.88l-14.22 21.54c-1.16 1.75-3.52 2.25-5.29 1.1l-7.66-4.97c-1.77-1.14-2.28-3.5-1.14-5.28z"/>
					</g>
				</g>
			</g>
		</g>
	</g>
</svg>