<svg version="1.2" xmlns="http://www.w3.org/2000/svg" viewBox="0 0 93 276" width="93" height="276">
	<style>
		.s0 { fill: #ffd427;stroke: #1e1e1e;stroke-miterlimit:10;stroke-width: 5 } 
	</style>
	<g id="MISCELLANEOUS">
		<g id="-e-">
			<path id="&lt;Path&gt;" class="s0" d="m90.23 46.62c0 24.09-19.52 43.62-43.61 43.62-24.09 0-43.62-19.53-43.62-43.62 0-24.09 19.53-43.62 43.62-43.62 24.09 0 43.61 19.53 43.61 43.62z"/>
			<path id="&lt;Path&gt;" class="s0" d="m90.23 152.11c0-24.08-19.52-43.61-43.61-43.61-24.09 0-43.62 19.53-43.62 43.61 0 18.05 10.96 33.54 26.59 40.17 2.99 1.41 4.62 4.28 1.94 8.5l-27.6 49.94c-0.9 1.4-0.5 3.25 0.89 4.17l25.19 17.55c1.4 0.92 3.28 0.54 4.21-0.86 0 0 47.38-89.23 50.69-96.57q2.39-5.31 3.63-10.86c1.1-3.83 1.69-7.86 1.69-12.04z"/>
		</g>
	</g>
</svg>