<svg version="1.2" xmlns="http://www.w3.org/2000/svg" viewBox="0 0 246 242" width="246" height="242">
	<style>
		.s0 { fill: #34a853;stroke: #1e1e1e;stroke-linejoin: round;stroke-width: 5 } 
	</style>
	<g id="MISCELLANEOUS">
		<path id="-e-" fill-rule="evenodd" class="s0" d="m238.96 103.71h-31.65v33.83h31.65c2.21 0 4 1.79 4 4v59.46c0 2.21-1.79 4-4 4h-31.65v29.76c0 2.21-1.79 4-4 4h-59.46c-2.21 0-4-1.79-4-4v-29.76h-33.83v29.76c0 2.21-1.79 4-4 4h-59.46c-2.21 0-4-1.79-4-4v-29.76h-31.65c-2.2 0-4-1.79-4-4v-59.46c0-2.21 1.8-4 4-4h31.65v-33.83h-31.65c-2.2 0-4-1.79-4-4v-59.46c0-2.21 1.8-4 4-4h31.65v-29.76c0-2.21 1.79-4 4-4h59.46c2.21 0 4 1.79 4 4v29.76h33.83v-29.76c0-2.21 1.79-4 4-4h59.46c2.21 0 4 1.79 4 4v29.76h31.65c2.21 0 4 1.79 4 4v59.46c0 2.21-1.79 4-4 4zm-99.11 0h-33.83v33.83h33.83z"/>
	</g>
</svg>