<svg version="1.2" xmlns="http://www.w3.org/2000/svg" viewBox="0 0 186 175" width="186" height="175">
	<style>
		.s0 { fill: #4285f4;stroke: #1e1e1e;stroke-linejoin: round;stroke-width: 5 } 
	</style>
	<g id="MISCELLANEOUS">
		<path id="-e-" class="s0" d="m178.88 56.3h-53.3v-49.3c0-2.21-1.79-4-4-4h-57.39c-2.2 0-4 1.79-4 4v49.3h-53.29c-2.21 0-4 1.79-4 4v55.15c0 2.21 1.79 4 4 4h53.29v48.3c0 2.21 1.8 4 4 4h57.39c2.21 0 4-1.79 4-4v-48.3h53.3c2.21 0 4-1.79 4-4v-55.15c0-2.21-1.79-4-4-4z"/>
	</g>
</svg>